<?xml version="1.0" encoding="utf-8"?>
<!-- Generator: Adobe Illustrator 22.1.0, SVG Export Plug-In . SVG Version: 6.00 Build 0)  -->
<svg version="1.1" id="Warstwa_1" xmlns="http://www.w3.org/2000/svg" xmlns:xlink="http://www.w3.org/1999/xlink" x="0px" y="0px"
	 viewBox="0 0 425.7 72" style="enable-background:new 0 0 425.7 72;" xml:space="preserve">
<g>
	<path d="M41.9,51.1c0-6.3-5.1-10.1-15.7-12.4C10.9,35.4,3.3,28.8,3.3,18.8c0-5.4,2.2-9.8,6.4-13.1c4.3-3.3,10.1-5,17.4-5
		c5.6,0,10.6,1.6,15,4.7c4.4,3.1,7.3,7,8.7,11.7l-9,3.2c-1.8-5.8-7.4-10-14.6-10c-8.7,0-14.6,3.4-14.6,8.8c0,5.4,4.8,8.2,14.6,10.5
		C43.9,33.4,51.4,39.9,51.4,51c0,5.9-2.3,10.7-6.9,14.5c-4.6,3.7-10.4,5.6-17.3,5.6c-6.1,0-11.6-1.8-16.6-5.3
		c-4.9-3.6-8.1-8-9.5-13.2l8.8-3.5c0.9,3.5,2.9,6.4,6.3,8.9c3.3,2.4,6.9,3.6,11,3.6C36,61.6,41.9,57.6,41.9,51.1z"/>
	<path d="M54,36c0-9.8,3.4-18,10.2-24.9C71.1,4.1,79.4,0.7,89.1,0.7s18,3.4,24.9,10.3C121,18,124.4,26.2,124.4,36
		c0,9.8-3.4,18-10.3,24.9c-6.9,6.8-15.2,10.2-24.9,10.2s-18-3.4-24.9-10.2C57.4,54,54,45.7,54,36z M107.3,54.2
		c5-5,7.6-11.1,7.6-18.2c0-7.1-2.6-13.2-7.6-18.2c-5-5-11.1-7.6-18.2-7.6s-13.2,2.6-18.2,7.6c-5,5-7.5,11.1-7.5,18.2
		c0,7.1,2.5,13.2,7.5,18.2c5,5,11.1,7.5,18.2,7.5S102.3,59.2,107.3,54.2z"/>
	<path d="M172.8,34.3c5.2,3.5,8.5,9.6,8.5,16c0,5.4-1.9,10-5.8,13.9c-3.9,3.9-8.5,5.8-13.9,5.8h-32.2v-68h32.2c5,0,9.2,1.8,12.7,5.3
		c3.5,3.5,5.3,7.7,5.3,12.7C179.6,25.7,177.3,30.5,172.8,34.3z M143.6,28.3h16.1c3,0,5.8-2.9,5.8-6.1c0-3-2.7-6-5.8-6h-16.1V28.3z
		 M143.6,55.8h16.1c3.9,0,7.4-3.6,7.4-7.7c0-4.1-3.5-7.6-7.4-7.6h-16.1V55.8z"/>
	<path d="M218.2,0.7c9.6,0,17.8,3.5,24.7,10.4c6.9,6.9,10.4,15.2,10.4,24.7c0,9.6-3.5,17.9-10.4,24.8c-6.9,6.9-15.2,10.4-24.7,10.4
		c-9.6,0-17.9-3.5-24.8-10.4c-6.9-6.9-10.3-15.3-10.3-24.8c0-9.6,3.4-17.9,10.2-24.9C200.1,4.1,208.4,0.7,218.2,0.7z M233.1,50.8
		c4.1-4.2,6.2-9.2,6.2-15c0-5.8-2.1-10.8-6.2-14.9c-4.1-4.1-9.1-6.2-14.9-6.2s-10.8,2.1-14.9,6.2c-4.1,4.1-6.1,9.1-6.1,14.9
		c0,5.8,2.1,10.8,6.2,15c4.1,4.1,9,6.2,14.8,6.2S229,54.9,233.1,50.8z"/>
	<path d="M310.1,70h-17.4l-20.9-25.4V70h-14.2v-68h26.6c6,0,11.2,2.2,15.4,6.4c4.4,4.3,6.5,9.5,6.5,15.5c0,10.6-6.9,18.6-17.2,20.6
		L310.1,70z M283.8,32.5c4.5,0,8.1-3.6,8.1-8.1s-3.6-8.1-8.1-8.1h-12v16.2H283.8z"/>
	<path d="M363.2,16.2H330v12h29.4v14.2H330v13.3h33.2V70h-47.4v-68h47.4V16.2z"/>
	<path d="M369.8,70v-68h21.4c9.3,0,17.2,3.4,24,10.1c6.7,6.7,10,14.7,10,23.9c0,9.4-3.3,17.3-10,24.1c-6.7,6.6-14.7,9.9-24,9.9
		H369.8z M384,16.2v39.6h7.2c5.5,0,10.1-1.9,14-5.8c3.9-3.9,5.9-8.5,5.9-14c0-5.4-2-10-5.9-13.9c-3.9-3.9-8.5-5.9-14-5.9H384z"/>
</g>
<g>
</g>
<g>
</g>
<g>
</g>
<g>
</g>
<g>
</g>
<g>
</g>
</svg>
