<?xml version="1.0" encoding="utf-8"?>
<!-- Generator: Adobe Illustrator 22.1.0, SVG Export Plug-In . SVG Version: 6.00 Build 0)  -->
<svg version="1.1" id="Layer_1" xmlns="http://www.w3.org/2000/svg" xmlns:xlink="http://www.w3.org/1999/xlink" x="0px" y="0px"
	 viewBox="0 0 1366 309" style="enable-background:new 0 0 1366 309;" xml:space="preserve">
<style type="text/css">
	.st0{fill:none;}
	.st1{fill:#B71F2E;}
</style>
<g>
	<path class="st0" d="M372.3,64.6c-30.2,0-40.3,22.2-40.3,74.5c0,50,9.7,72.5,40.3,72.5s39.9-23.2,39.9-74.5
		C412.3,86.1,402.9,64.6,372.3,64.6z"/>
	<path class="st0" d="M642.8,64.6c-25.2,0-35.2,22.2-36.2,64.4H673v-13.4C673,84.1,666.6,64.6,642.8,64.6z"/>
	<path class="st0" d="M944.2,65.3c-26.8,0-39.3,17.8-39.3,75.8c0,51.3,9.7,69.1,32.9,69.1c28.5,0,45-26.5,45-55.4v-44
		C982.8,77,966.3,65.3,944.2,65.3z"/>
	<path class="st0" d="M70.3,64.9c-24.8,0-30.5,19.5-30.5,47c0,26.5,5.4,45.3,30.2,45.3c24.8,0,31.2-18.4,31.2-46
		C101.2,84.4,95.1,64.9,70.3,64.9z"/>
	<path class="st0" d="M1336.8,115.6c0-31.5-6.4-51-30.2-51c-25.2,0-35.2,22.2-36.2,64.4h66.4V115.6z"/>
	<path d="M146.1,51.9c0-8.7-5.7-18.5-23.8-18.5c-7.7,0-12.1,1.7-12.1,1.7v2.7c11.4-0.3,15.8,5.4,15.8,17.1c0,9.7-3,14.4-10.4,19.8
		C105.2,65.3,89.8,60.2,71,60.2c-40.3,0-61.1,23.2-61.1,52.3c0,15.1,5.4,27.5,15.8,36.2c-12.4,9.4-25.2,21.5-25.2,39.6
		c0,31.5,34.2,34.2,71.8,36.9c33.2,2.4,62.1,4.7,62.1,27.5c0,23.5-30.2,34.6-63.1,34.6c-31.2,0-46.3-8.7-46.3-27.5
		c0-14.4,5.4-22.2,17.1-20.1v-2.7c0,0-5-1.7-10.4-1.7c-13.8,0-28.9,7.7-28.9,22.8c0,21.1,31.2,34.2,68.5,34.2
		c37.9,0,73.8-13.8,73.8-51.3c0-34.9-31.2-40.6-69.1-43.6c-35.9-2.7-63.1-2-63.1-21.1c0-10.1,7.7-17.8,17.1-24.5
		c9.7,6.4,22.8,10.1,39.6,10.1c38.6,0,61.4-19.8,61.4-51c0-13.4-4.4-24.5-12.1-32.9C133.4,69.3,146.1,64.6,146.1,51.9z M70,157.2
		c-24.8,0-30.2-18.8-30.2-45.3c0-27.5,5.7-47,30.5-47s30.9,19.5,30.9,46.3C101.2,138.8,94.8,157.2,70,157.2z"/>
	<path d="M252.9,60.2c-23.8,0-37.2,20.5-43.3,37.9h-0.7V62.6h-52.3v5h23.5v140.9h-23.5v5h79.9v-5h-26.8V123c0-10.4,4-25.2,11.4-37.2
		c6.4-10.4,15.1-18.5,24.5-18.5c10.1,0,15.4,8.7,15.4,25.5c0,9.4-1.7,21.5-11.4,19.8v2.7c4.4,2,7.7,2,11.4,2
		c13.4,0,23.8-10.1,23.8-26.5C284.7,72,270.7,60.2,252.9,60.2z"/>
	<path d="M372.3,60.2c-49.7,0-71.8,30.5-71.8,78.9c0,46.6,23.5,76.9,71.8,76.9c44.3,0,71.5-28.5,71.5-78.9
		C443.8,89.4,422.3,60.2,372.3,60.2z M372.3,211.6c-30.5,0-40.3-22.5-40.3-72.5c0-52.3,10.1-74.5,40.3-74.5
		c30.5,0,39.9,21.5,39.9,72.5C412.3,188.4,402.9,211.6,372.3,211.6z"/>
	<path d="M514.5,181.6c0.1,0.1,0.1,0.2,0.1,0.2c0-0.4,0-0.7,0-1.1V67.6h39.3v-5h-39.3V9.2h-5c0,20.1-13.4,53.4-36.2,53.4h-10.7v5
		h22.5v76.8c4.8,5.8,9.5,11.6,14.2,17.4C504.5,168.4,509.9,174.7,514.5,181.6z"/>
	<path d="M497.2,206.2c-0.7-0.6-1.5-1.1-2.3-1.4c1.7,1.9,3.6,3.6,5.8,5c-0.9-1-1.8-2.1-2.9-3C497.6,206.5,497.4,206.4,497.2,206.2z"
		/>
	<path d="M642.8,60.2c-40.3,0-67.8,21.1-67.8,78.2c0,55,26.8,77.5,68.1,77.5c10.1,0,16.8-1.3,24.2-4c18.8-7,31.5-22.2,31.5-41.6
		h-5.4c0,24.8-23.2,40.6-47.3,40.6c-26.5,0-39.9-14.8-39.9-71.8v-5h96v-13.4C702.2,79,680.7,60.2,642.8,60.2z M673,129h-66.4
		c1-42.3,11.1-64.4,36.2-64.4c23.8,0,30.2,19.5,30.2,51V129z"/>
	<path d="M747.2,93.1c0-19.1,18.1-27.9,39.6-27.9c31.5,0,45,20.8,45,37.9v5.4h5V91.5c0-10.7,1-22.8,5.4-31.2h-4.4
		c-2.4,5-5,12.8-12.8,14.4c-8.7-9.1-22.1-14.4-37.9-14.4c-22.8,0-53,10.4-53,45c0,62.7,96,38.3,96,77.2c0,18.8-17.8,28.5-38.9,28.5
		c-31.2,0-50.7-21.5-50.7-38.9v-12.1h-5v24.8c0,10.7-0.7,22.8-3.7,31.2h4.4c2-6,6-14.8,11.7-16.4c9.4,9.4,24.5,16.4,43,16.4
		c32.9,0,53-20.5,53-47.3C843.8,108.2,747.2,132.1,747.2,93.1z"/>
	<path d="M1012.3,60.2h-5c-1,6.7-6,21.1-16.1,23.5c-9.7-13.1-24.8-23.5-48.3-23.5c-34.9,0-69.5,22.5-69.5,82.9
		c0,45.3,19.5,72.8,59.1,72.8c26.8,0,40.9-12.4,49.7-31.9h0.7v101h-23.8v5h76.8v-5h-23.5V60.2z M982.8,154.9
		c0,28.8-16.4,55.4-45,55.4c-23.2,0-32.9-17.8-32.9-69.1c0-58,12.4-75.8,39.3-75.8c22.2,0,38.6,11.7,38.6,45.6V154.9z"/>
	<path d="M1195.5,62.6h-53v5h23.5v85.6c0,17.4-11.7,56.7-49,56.7c-18.1,0-23.8-8.7-23.8-33.9V62.6h-53v5h23.5V170
		c0,31.9,15.1,46,48.3,46c32.6,0,47.3-20.1,54-38.3h0.7v35.9h52.3v-5h-23.5V62.6z"/>
	<path d="M1366,134.1v-13.4c0-41.6-21.5-60.4-59.4-60.4c-40.3,0-67.8,21.1-67.8,78.2c0,55,26.8,77.5,68.1,77.5
		c10.1,0,16.8-1.3,24.2-4c18.8-7,31.5-22.2,31.5-41.6h-5.4c0,24.8-23.2,40.6-47.3,40.6c-26.5,0-39.9-14.8-39.9-71.8v-5H1366z
		 M1306.6,64.6c23.8,0,30.2,19.5,30.2,51V129h-66.4C1271.4,86.8,1281.4,64.6,1306.6,64.6z"/>
	<g>
		<path class="st1" d="M610,254.7c-6.9-1.9-13.8-3.5-20.9-5.2c-2.8,5.4-8,7.2-13.9,7.4c-5.6,0.1-11.6,1.1-16.7-1.8
			c-4.3-2.5-8.2-6.1-11.6-9.8c-5.7-6.1-10.1-13.1-14.2-20.3c-1.3-2.3-2.6-4.6-3.8-6.9c-1.3-2.5-2.6-4.9-3.9-7.4
			c-3.4-6.5-6.5-13.1-10.5-19.2c-0.1-0.1-0.1-0.2-0.1-0.2c-4.6-6.9-10-13.2-15.2-19.7c-4.7-5.8-9.5-11.6-14.2-17.4
			c-1.5-1.8-3-3.6-4.4-5.4c-0.2,0-0.4,0-0.5,0c-1.6,1.2-3.2,2.3-4.7,3.5c-7.7,6.2-11.3,14.7-13.2,24.1c-0.7,3.4-0.9,6.8-1.3,10.2
			c0,0.9,0,1.8,0,2.7c0.2,1.2,0.5,2.5,0.5,3.7c0.4,5.7,1.6,11.1,4.1,16.4c1.1,2.3,1.9,5,2,7.5c1,20.3,1.8,40.7,2.5,61
			c0.3,6.7,0.2,13.3,0.4,20c0,1.2-0.2,2.5,1.7,2.5c3.6-0.1,7.1,0,10.7-0.4c2-0.2,3.5-1.3,3.5-4c-0.2-7-0.3-14.1-0.2-21.1
			c0.3-18.2,0.7-36.3,1-54.5c0-2.6,0.7-5,3.3-6.1c1.6-0.7,3.1-0.5,4.5,0.1c0.8,0.4,1.6,0.8,2.3,1.4c0.2,0.2,0.4,0.4,0.6,0.5
			c1,1,2,2,2.9,3c3.8,4.4,6.7,9.5,9.7,14.4c3.9,6.6,7.5,13.4,11.9,19.6c3.3,4.6,7.6,8.5,11.5,12.7c6.5,7.1,14.4,11.6,24.2,12.4
			c21.9,1.8,43.6-0.4,65-4.8c0.8-0.2,1.6-0.8,2.3-1.2c0-1.3,0-2.6,0-3.8c-0.9-3.6-2-7.1-4.9-9.8C617.5,256.4,613.7,255.7,610,254.7z
			"/>
		<path class="st1" d="M558.7,280.8c-12.8-0.5-21.9-7.7-29.8-16.9c-2-2.3-4-4.6-6.5-6.6c1.2,2.5,2.7,4.9,3.7,7.5
			c2.9,7.8,5.5,15.6,8.4,23.4c1,2.8,2.3,5.5,3.8,8.1c1.4,2.5,3.9,3.4,6.7,3.7c3.4,0.4,6.9,0.9,10.3,1.3c4.8,0,9.5,0,14.3,0
			c2.2-0.2,4.3-0.6,6.5-0.7c12.2-0.3,23.9-2.9,35.3-7c0.4-0.2,0.9-0.2,1.3-0.4c2.4-1,5.8-1.3,7-3.1c2.7-4,4.2-8.8,4.7-14.2
			c-3.5,0.6-6.8,1.1-9.9,1.8C596,281.8,577.3,281.6,558.7,280.8z"/>
	</g>
</g>
</svg>
