<?xml version="1.0" encoding="utf-8"?>
<!-- Generator: Adobe Illustrator 22.1.0, SVG Export Plug-In . SVG Version: 6.00 Build 0)  -->
<svg version="1.1" id="Layer_1" xmlns="http://www.w3.org/2000/svg" xmlns:xlink="http://www.w3.org/1999/xlink" x="0px" y="0px"
	 viewBox="0 0 305 283" style="enable-background:new 0 0 305 283;" xml:space="preserve">
<style type="text/css">
	.st0{fill:#B71F2E;}
</style>
<g>
	<path class="st0" d="M276.8,196.5c-12.7-3.4-25.6-6.4-38.8-9.7c-5.3,10-14.8,13.5-25.9,13.7c-10.5,0.2-21.6,2.1-31-3.3
		c-8-4.7-15.2-11.3-21.5-18.2c-10.6-11.4-18.9-24.3-26.4-37.6c-2.4-4.2-4.8-8.5-7.1-12.8c-2.4-4.6-4.8-9.1-7.2-13.7
		c-6.2-12-12-24.4-19.4-35.6c-0.1-0.1-0.2-0.3-0.3-0.4C90.8,66.1,80.7,54.4,71,42.3C62.3,31.5,53.5,20.7,44.6,10
		c-2.8-3.4-5.5-6.7-8.2-10.1c-0.3,0-0.7,0-1,0c-2.9,2.2-5.9,4.3-8.7,6.6C12.3,17.9,5.6,33.7,2.1,51.2c-1.2,6.2-1.6,12.7-2.4,19
		c0,1.7,0,3.4,0,5.1c0.3,2.3,0.9,4.6,1,6.9c0.7,10.6,2.9,20.7,7.5,30.4c2.1,4.3,3.6,9.3,3.8,14c1.8,37.8,3.3,75.6,4.7,113.4
		c0.5,12.4,0.4,24.8,0.7,37.1c0,2.2-0.3,4.7,3.2,4.6c6.6-0.2,13.3-0.1,19.8-0.8c3.8-0.4,6.6-2.4,6.4-7.4
		c-0.4-13.1-0.5-26.1-0.3-39.2c0.5-33.8,1.2-67.5,1.8-101.2c0.1-4.9,1.2-9.3,6.1-11.3c3-1.2,5.8-0.9,8.4,0.3
		c1.5,0.7,2.9,1.5,4.3,2.7c0.4,0.3,0.8,0.7,1.2,1c1.9,1.8,3.6,3.7,5.3,5.6c7.1,8.1,12.4,17.6,18,26.8c7.3,12.2,14,24.8,22.2,36.4
		c6.1,8.6,14.2,15.8,21.4,23.7c12.2,13.2,26.8,21.6,45,23.1c40.7,3.3,81-0.8,120.9-8.8c1.5-0.3,2.9-1.5,4.3-2.3c0-2.4,0-4.8,0-7.1
		c-1.7-6.8-3.7-13.2-9.1-18.3C290.6,199.6,283.6,198.3,276.8,196.5z"/>
	<path class="st0" d="M181.4,245c-23.7-1-40.7-14.3-55.4-31.4c-3.7-4.3-7.4-8.6-12.1-12.2c2.3,4.6,5.1,9,6.9,13.8
		c5.4,14.4,10.3,29,15.6,43.5c1.9,5.2,4.4,10.2,7.1,15.1c2.6,4.6,7.2,6.3,12.4,6.9c6.4,0.7,12.7,1.6,19.1,2.4c8.8,0,17.7,0,26.5,0
		c4-0.4,8-1.2,12.1-1.3c22.6-0.5,44.4-5.4,65.6-13c0.8-0.3,1.6-0.4,2.4-0.8c4.5-1.8,10.8-2.5,13-5.8c5-7.5,7.9-16.3,8.7-26.5
		c-6.6,1.2-12.6,2-18.4,3.3C250.6,246.9,216,246.4,181.4,245z"/>
</g>
</svg>
